<svg class="main-svg" xmlns="http://www.w3.org/2000/svg" xmlns:xlink="http://www.w3.org/1999/xlink" width="700" height="500" style="" viewBox="0 0 700 500"><rect x="0" y="0" width="700" height="500" style="fill: rgb(255, 255, 255); fill-opacity: 1;"/><defs id="defs-36e469"><g class="clips"><clipPath id="clip36e469polar-for-traces"><path d="M160,0A160,160 0,1,0 -160,-1.9594348786357652e-14A160,160 0,1,0 160,3.9188697572715304e-14Z" transform="translate(160,160)"/></clipPath></g><g class="gradients"/><g class="patterns"/></defs><g class="bglayer"/><g class="layer-below"><g class="imagelayer"/><g class="shapelayer"/></g><g class="cartesianlayer"/><g class="polarlayer"><g class="polar"><g class="polarsublayer draglayer"/><g class="polarsublayer plotbg"><path d="M160,0A160,160 0,1,0 -160,-1.9594348786357652e-14A160,160 0,1,0 160,3.9188697572715304e-14Z" transform="translate(350,260)" style="fill: rgb(229, 236, 246); fill-opacity: 1;"/></g><g class="polarsublayer backplot"><g class="maplayer"/></g><g class="polarsublayer angular-grid" style="fill: none;"><path class="angularaxisgrid" d="M350,260L350,100" style="stroke: rgb(255, 255, 255); stroke-opacity: 1; stroke-width: 1px;"/><path class="angularaxisgrid" d="M350,260L452.8460175498463,137.4328891009635" style="stroke: rgb(255, 255, 255); stroke-opacity: 1; stroke-width: 1px;"/><path class="angularaxisgrid" d="M350,260L507.5692404819533,232.21629157329113" style="stroke: rgb(255, 255, 255); stroke-opacity: 1; stroke-width: 1px;"/><path class="angularaxisgrid" d="M350,260L488.5640646055102,340" style="stroke: rgb(255, 255, 255); stroke-opacity: 1; stroke-width: 1px;"/><path class="angularaxisgrid" d="M350,260L404.72322293210703,410.3508193257453" style="stroke: rgb(255, 255, 255); stroke-opacity: 1; stroke-width: 1px;"/><path class="angularaxisgrid" d="M350,260L295.276777067893,410.35081932574536" style="stroke: rgb(255, 255, 255); stroke-opacity: 1; stroke-width: 1px;"/><path class="angularaxisgrid" d="M350,260L211.43593539448983,340.00000000000006" style="stroke: rgb(255, 255, 255); stroke-opacity: 1; stroke-width: 1px;"/><path class="angularaxisgrid" d="M350,260L192.4307595180467,232.2162915732912" style="stroke: rgb(255, 255, 255); stroke-opacity: 1; stroke-width: 1px;"/><path class="angularaxisgrid" d="M350,260L247.15398245015368,137.43288910096354" style="stroke: rgb(255, 255, 255); stroke-opacity: 1; stroke-width: 1px;"/></g><g class="polarsublayer radial-grid" transform="translate(350,260)" style="fill: none;"><path class="xgrid" d="M26.67,0A26.67,26.67 0,1,0 -26.67,-3.2661330133259913e-15A26.67,26.67 0,1,0 26.67,6.532266026651983e-15Z" style="stroke: rgb(255, 255, 255); stroke-opacity: 1; stroke-width: 1px;"/><path class="xgrid" d="M53.33,0A53.33,53.33 0,1,0 -53.33,-6.531041379852834e-15A53.33,53.33 0,1,0 53.33,1.3062082759705669e-14Z" style="stroke: rgb(255, 255, 255); stroke-opacity: 1; stroke-width: 1px;"/><path class="xgrid" d="M80,0A80,80 0,1,0 -80,-9.797174393178826e-15A80,80 0,1,0 80,1.9594348786357652e-14Z" style="stroke: rgb(255, 255, 255); stroke-opacity: 1; stroke-width: 1px;"/><path class="xgrid" d="M106.67,0A106.67,106.67 0,1,0 -106.67,-1.3063307406504817e-14A106.67,106.67 0,1,0 106.67,2.6126614813009634e-14Z" style="stroke: rgb(255, 255, 255); stroke-opacity: 1; stroke-width: 1px;"/><path class="xgrid" d="M133.33,0A133.33,133.33 0,1,0 -133.33,-1.632821577303166e-14A133.33,133.33 0,1,0 133.33,3.265643154606332e-14Z" style="stroke: rgb(255, 255, 255); stroke-opacity: 1; stroke-width: 1px;"/></g><g class="polarsublayer frontplot" transform="translate(190,100)" clip-path="url(#clip36e469polar-for-traces)"><g class="barlayer"/><g class="scatterlayer"><g class="trace scatter traced3a596" style="stroke-miterlimit: 2; opacity: 1;"><g class="fills"><g><path class="js-fill" d="M160,91.2L215.02,94.43L209.63,151.25L201.34,183.87L174.41,199.59L157.99,165.51L156.07,162.27L145.29,157.41L157.09,156.53L160,91.2Z" style="fill: rgb(99, 110, 250); fill-opacity: 0.5; stroke-width: 0;"/></g></g><g class="errorbars"/><g class="lines"><path class="js-line" d="M160,91.2L215.02,94.43L209.63,151.25L201.34,183.87L174.41,199.59L157.99,165.51L156.07,162.27L145.29,157.41L157.09,156.53L160,91.2" style="vector-effect: none; fill: none; stroke: rgb(99, 110, 250); stroke-opacity: 1; stroke-width: 2px; opacity: 1;"/></g><g class="points"/><g class="text"/></g></g></g><g class="polarsublayer angular-line"><path d="M160,0A160,160 0,1,0 -160,-1.9594348786357652e-14A160,160 0,1,0 160,3.9188697572715304e-14Z" transform="translate(350,260)" stroke-width="1" style="fill: none; stroke: rgb(255, 255, 255); stroke-opacity: 1;"/></g><g class="polarsublayer radial-line"><line x1="0" y1="0" x2="160" y2="0" transform="translate(350,260)" stroke-width="1" style="fill: none; stroke: rgb(255, 255, 255); stroke-opacity: 1;"/></g><g class="polarsublayer angular-axis"><g class="angularaxistick"><text text-anchor="middle" x="5.204748896376251e-16" y="-16.5" transform="translate(350,100)" style="font-family: 'Open Sans', verdana, arial, sans-serif; font-size: 40px; fill: rgb(42, 63, 95); fill-opacity: 1; white-space: pre; opacity: 1;">sound</text></g><g class="angularaxistick"><text text-anchor="start" x="5.463694682335585" y="-3.640706775851587" transform="translate(452.8460175498463,137.4328891009635)" style="font-family: 'Open Sans', verdana, arial, sans-serif; font-size: 40px; fill: rgb(42, 63, 95); fill-opacity: 1; white-space: pre; opacity: 1;">movement</text></g><g class="angularaxistick"><text text-anchor="start" x="8.370865900603768" y="10.92211361066656" transform="translate(507.5692404819533,232.21629157329113)" style="font-family: 'Open Sans', verdana, arial, sans-serif; font-size: 40px; fill: rgb(42, 63, 95); fill-opacity: 1; white-space: pre; opacity: 1;">shape</text></g><g class="angularaxistick"><text text-anchor="start" x="7.361215932167729" y="36.37435565298213" transform="translate(488.5640646055102,340)" style="font-family: 'Open Sans', verdana, arial, sans-serif; font-size: 40px; fill: rgb(42, 63, 95); fill-opacity: 1; white-space: pre; opacity: 1;">texture</text></g><g class="angularaxistick"><text text-anchor="start" x="2.907171218268185" y="50.36337411467591" transform="translate(404.72322293210703,410.3508193257453)" style="font-family: 'Open Sans', verdana, arial, sans-serif; font-size: 40px; fill: rgb(42, 63, 95); fill-opacity: 1; white-space: pre; opacity: 1;">interoception</text></g><g class="angularaxistick"><text text-anchor="end" x="-2.907171218268184" y="50.36337411467592" transform="translate(295.276777067893,410.35081932574536)" style="font-family: 'Open Sans', verdana, arial, sans-serif; font-size: 40px; fill: rgb(42, 63, 95); fill-opacity: 1; white-space: pre; opacity: 1;">light</text></g><g class="angularaxistick"><text text-anchor="end" x="-7.3612159321677275" y="36.37435565298216" transform="translate(211.43593539448983,340.00000000000006)" style="font-family: 'Open Sans', verdana, arial, sans-serif; font-size: 40px; fill: rgb(42, 63, 95); fill-opacity: 1; white-space: pre; opacity: 1;">pain</text></g><g class="angularaxistick"><text text-anchor="end" x="-8.37086590060377" y="10.922113610666567" transform="translate(192.4307595180467,232.2162915732912)" style="font-family: 'Open Sans', verdana, arial, sans-serif; font-size: 40px; fill: rgb(42, 63, 95); fill-opacity: 1; white-space: pre; opacity: 1;">taste</text></g><g class="angularaxistick"><text text-anchor="end" x="-5.463694682335586" y="-3.6407067758515836" transform="translate(247.15398245015368,137.43288910096354)" style="font-family: 'Open Sans', verdana, arial, sans-serif; font-size: 40px; fill: rgb(42, 63, 95); fill-opacity: 1; white-space: pre; opacity: 1;">smell</text></g></g><g class="polarsublayer radial-axis" display="none"/></g></g><g class="smithlayer"/><g class="ternarylayer"/><g class="geolayer"/><g class="funnelarealayer"/><g class="pielayer"/><g class="iciclelayer"/><g class="treemaplayer"/><g class="sunburstlayer"/><g class="glimages"/><defs id="topdefs-36e469"><g class="clips"/></defs><g class="layer-above"><g class="imagelayer"/><g class="shapelayer"/></g><g class="infolayer"><g class="g-gtitle"><text class="gtitle" x="700" y="0" text-anchor="end" dy="0.7em" style="font-family: 'Open Sans', verdana, arial, sans-serif; font-size: 50px; fill: rgb(42, 63, 95); opacity: 1; font-weight: normal; white-space: pre;"><tspan class="line" dy="0em" x="700" y="0">Sensory information </tspan><tspan class="line" dy="1.3em" x="700" y="0"></tspan></text></g><g class="g-polartitle"/><g class="annotation" data-index="0" style="opacity: 1;"><g class="annotation-text-g" transform="rotate(0,475,500)"><g class="cursor-pointer" transform="translate(257,480)"><rect class="bg" x="0.5" y="0.5" width="435" height="39" style="stroke-width: 1px; stroke: rgb(0, 0, 0); stroke-opacity: 0; fill: rgb(0, 0, 0); fill-opacity: 0;"/><text class="annotation-text" text-anchor="middle" x="217.890625" y="32" style="font-family: 'Open Sans', verdana, arial, sans-serif; font-size: 30px; fill: rgb(42, 63, 95); fill-opacity: 1; white-space: pre;">Source: McLean et al (2023)</text></g></g></g></g></svg>